<mxfile host="app.diagrams.net" modified="2024-04-24T16:52:40.348Z" agent="Mozilla/5.0 (Windows NT 10.0; Win64; x64) AppleWebKit/537.36 (KHTML, like Gecko) Chrome/123.0.0.0 Safari/537.36" etag="Un4PeMRmaPyROk9e7PgX" version="24.2.7" type="onedrive">
  <diagram name="Page-1" id="GBcONHU2VwplM2kaRONf">
    <mxGraphModel grid="1" page="0" gridSize="10" guides="1" tooltips="1" connect="1" arrows="1" fold="1" pageScale="1" pageWidth="4681" pageHeight="3300" math="0" shadow="0">
      <root>
        <mxCell id="0" />
        <mxCell id="1" parent="0" />
        <mxCell id="F1h0W-G2bSR8l9jg8QGl-1" value="&lt;font style=&quot;font-size: 37px;&quot;&gt;Start&lt;/font&gt;" style="ellipse;whiteSpace=wrap;html=1;fillColor=#d5e8d4;strokeColor=#82b366;" vertex="1" parent="1">
          <mxGeometry x="740" y="-234" width="200" height="100" as="geometry" />
        </mxCell>
        <mxCell id="F1h0W-G2bSR8l9jg8QGl-2" value="" style="endArrow=classic;html=1;rounded=0;strokeWidth=2;exitX=0.5;exitY=1;exitDx=0;exitDy=0;" edge="1" parent="1" source="F1h0W-G2bSR8l9jg8QGl-1">
          <mxGeometry width="50" height="50" relative="1" as="geometry">
            <mxPoint x="830" y="-120" as="sourcePoint" />
            <mxPoint x="840" y="-80" as="targetPoint" />
          </mxGeometry>
        </mxCell>
        <mxCell id="F1h0W-G2bSR8l9jg8QGl-3" value="&lt;font style=&quot;font-size: 27px;&quot;&gt;Last test sample?&lt;/font&gt;" style="rhombus;whiteSpace=wrap;html=1;fillColor=#fff2cc;strokeColor=#d6b656;" vertex="1" parent="1">
          <mxGeometry x="755" y="120" width="170" height="170" as="geometry" />
        </mxCell>
        <mxCell id="F1h0W-G2bSR8l9jg8QGl-5" value="&lt;font style=&quot;font-size: 37px;&quot;&gt;End&lt;/font&gt;" style="ellipse;whiteSpace=wrap;html=1;fillColor=#f8cecc;strokeColor=#b85450;strokeWidth=2;" vertex="1" parent="1">
          <mxGeometry x="1482" y="760" width="200" height="100" as="geometry" />
        </mxCell>
        <mxCell id="F1h0W-G2bSR8l9jg8QGl-9" value="" style="endArrow=classic;html=1;rounded=0;exitX=0.5;exitY=1;exitDx=0;exitDy=0;strokeWidth=2;" edge="1" parent="1">
          <mxGeometry width="50" height="50" relative="1" as="geometry">
            <mxPoint x="839.38" y="412" as="sourcePoint" />
            <mxPoint x="839" y="470" as="targetPoint" />
          </mxGeometry>
        </mxCell>
        <mxCell id="F1h0W-G2bSR8l9jg8QGl-10" value="&lt;font style=&quot;font-size: 26px;&quot;&gt;No&lt;/font&gt;" style="text;html=1;align=center;verticalAlign=middle;resizable=0;points=[];autosize=1;strokeColor=none;fillColor=none;" vertex="1" parent="1">
          <mxGeometry x="780" y="286" width="60" height="40" as="geometry" />
        </mxCell>
        <mxCell id="F1h0W-G2bSR8l9jg8QGl-11" value="&lt;font style=&quot;font-size: 27px;&quot;&gt;Last vowel?&lt;/font&gt;" style="rhombus;whiteSpace=wrap;html=1;fillColor=#fff2cc;strokeColor=#d6b656;" vertex="1" parent="1">
          <mxGeometry x="753.5" y="470" width="170" height="170" as="geometry" />
        </mxCell>
        <mxCell id="F1h0W-G2bSR8l9jg8QGl-12" value="" style="endArrow=classic;html=1;rounded=0;exitX=1;exitY=0.5;exitDx=0;exitDy=0;strokeWidth=2;" edge="1" parent="1">
          <mxGeometry width="50" height="50" relative="1" as="geometry">
            <mxPoint x="925" y="555" as="sourcePoint" />
            <mxPoint x="990" y="555" as="targetPoint" />
          </mxGeometry>
        </mxCell>
        <mxCell id="F1h0W-G2bSR8l9jg8QGl-13" value="&lt;font style=&quot;font-size: 26px;&quot;&gt;No&lt;/font&gt;" style="text;html=1;align=center;verticalAlign=middle;resizable=0;points=[];autosize=1;strokeColor=none;fillColor=none;" vertex="1" parent="1">
          <mxGeometry x="923.5" y="515" width="60" height="40" as="geometry" />
        </mxCell>
        <mxCell id="F1h0W-G2bSR8l9jg8QGl-14" value="" style="endArrow=classic;html=1;rounded=0;entryX=0;entryY=0.5;entryDx=0;entryDy=0;strokeWidth=2;" edge="1" parent="1" target="F1h0W-G2bSR8l9jg8QGl-3">
          <mxGeometry width="50" height="50" relative="1" as="geometry">
            <mxPoint x="570" y="206" as="sourcePoint" />
            <mxPoint x="640" y="330" as="targetPoint" />
          </mxGeometry>
        </mxCell>
        <mxCell id="F1h0W-G2bSR8l9jg8QGl-15" value="" style="endArrow=none;html=1;rounded=0;strokeWidth=2;" edge="1" parent="1">
          <mxGeometry width="50" height="50" relative="1" as="geometry">
            <mxPoint x="570" y="555" as="sourcePoint" />
            <mxPoint x="570" y="484" as="targetPoint" />
          </mxGeometry>
        </mxCell>
        <mxCell id="F1h0W-G2bSR8l9jg8QGl-16" value="" style="endArrow=none;html=1;rounded=0;entryX=0;entryY=0.5;entryDx=0;entryDy=0;strokeWidth=2;" edge="1" parent="1" target="F1h0W-G2bSR8l9jg8QGl-11">
          <mxGeometry width="50" height="50" relative="1" as="geometry">
            <mxPoint x="570" y="555" as="sourcePoint" />
            <mxPoint x="760" y="614" as="targetPoint" />
          </mxGeometry>
        </mxCell>
        <mxCell id="F1h0W-G2bSR8l9jg8QGl-17" value="&lt;font style=&quot;font-size: 26px;&quot;&gt;Yes&lt;/font&gt;" style="text;html=1;align=center;verticalAlign=middle;resizable=0;points=[];autosize=1;strokeColor=none;fillColor=none;" vertex="1" parent="1">
          <mxGeometry x="685" y="555" width="70" height="40" as="geometry" />
        </mxCell>
        <mxCell id="F1h0W-G2bSR8l9jg8QGl-19" value="&lt;b&gt;&lt;font style=&quot;font-size: 15px;&quot;&gt;prob = multivariate_normal(mean=mean, cov=cov).pdf(test_data[i])&lt;/font&gt;&lt;/b&gt;" style="rounded=0;whiteSpace=wrap;html=1;" vertex="1" parent="1">
          <mxGeometry x="990" y="515" width="250" height="80" as="geometry" />
        </mxCell>
        <mxCell id="F1h0W-G2bSR8l9jg8QGl-20" value="&lt;font style=&quot;font-size: 22px;&quot;&gt;prob*P_w &amp;gt; max_prob&lt;/font&gt;" style="rhombus;whiteSpace=wrap;html=1;fillColor=#fff2cc;strokeColor=#d6b656;" vertex="1" parent="1">
          <mxGeometry x="1300" y="470" width="170" height="170" as="geometry" />
        </mxCell>
        <mxCell id="F1h0W-G2bSR8l9jg8QGl-21" value="" style="endArrow=classic;html=1;rounded=0;exitX=1;exitY=0.5;exitDx=0;exitDy=0;strokeWidth=2;" edge="1" parent="1">
          <mxGeometry width="50" height="50" relative="1" as="geometry">
            <mxPoint x="1240" y="555" as="sourcePoint" />
            <mxPoint x="1300" y="555" as="targetPoint" />
          </mxGeometry>
        </mxCell>
        <mxCell id="F1h0W-G2bSR8l9jg8QGl-22" value="" style="endArrow=classic;html=1;rounded=0;strokeWidth=2;" edge="1" parent="1">
          <mxGeometry width="50" height="50" relative="1" as="geometry">
            <mxPoint x="1385" y="440" as="sourcePoint" />
            <mxPoint x="840" y="440" as="targetPoint" />
          </mxGeometry>
        </mxCell>
        <mxCell id="F1h0W-G2bSR8l9jg8QGl-23" value="" style="endArrow=none;html=1;rounded=0;entryX=0.5;entryY=0;entryDx=0;entryDy=0;strokeWidth=2;" edge="1" parent="1" target="F1h0W-G2bSR8l9jg8QGl-20">
          <mxGeometry width="50" height="50" relative="1" as="geometry">
            <mxPoint x="1385" y="440" as="sourcePoint" />
            <mxPoint x="1460" y="530" as="targetPoint" />
          </mxGeometry>
        </mxCell>
        <mxCell id="F1h0W-G2bSR8l9jg8QGl-24" value="&lt;font style=&quot;font-size: 26px;&quot;&gt;False&lt;/font&gt;" style="text;html=1;align=center;verticalAlign=middle;resizable=0;points=[];autosize=1;strokeColor=none;fillColor=none;" vertex="1" parent="1">
          <mxGeometry x="1120" y="400" width="90" height="40" as="geometry" />
        </mxCell>
        <mxCell id="F1h0W-G2bSR8l9jg8QGl-25" value="&lt;b&gt;&lt;font style=&quot;font-size: 15px;&quot;&gt;max_prob = prob*P_w&lt;/font&gt;&lt;/b&gt;&lt;div&gt;&lt;b&gt;&lt;font style=&quot;font-size: 15px;&quot;&gt;class_num = parameters[&#39;class&#39;]&lt;/font&gt;&lt;/b&gt;&lt;/div&gt;&lt;div&gt;&lt;b&gt;&lt;font style=&quot;font-size: 15px;&quot;&gt;predicted_vowel = vowel&lt;/font&gt;&lt;/b&gt;&lt;/div&gt;" style="rounded=0;whiteSpace=wrap;html=1;" vertex="1" parent="1">
          <mxGeometry x="991" y="641" width="250" height="80" as="geometry" />
        </mxCell>
        <mxCell id="F1h0W-G2bSR8l9jg8QGl-26" value="" style="endArrow=classic;html=1;rounded=0;entryX=1.007;entryY=0.496;entryDx=0;entryDy=0;strokeWidth=2;entryPerimeter=0;" edge="1" parent="1" target="F1h0W-G2bSR8l9jg8QGl-25">
          <mxGeometry width="50" height="50" relative="1" as="geometry">
            <mxPoint x="1385" y="680" as="sourcePoint" />
            <mxPoint x="1297" y="800.82" as="targetPoint" />
          </mxGeometry>
        </mxCell>
        <mxCell id="F1h0W-G2bSR8l9jg8QGl-27" value="" style="endArrow=none;html=1;rounded=0;entryX=0.5;entryY=1;entryDx=0;entryDy=0;strokeWidth=2;" edge="1" parent="1" target="F1h0W-G2bSR8l9jg8QGl-20">
          <mxGeometry width="50" height="50" relative="1" as="geometry">
            <mxPoint x="1385" y="680" as="sourcePoint" />
            <mxPoint x="1520" y="750" as="targetPoint" />
          </mxGeometry>
        </mxCell>
        <mxCell id="F1h0W-G2bSR8l9jg8QGl-28" value="" style="endArrow=classic;html=1;rounded=0;strokeWidth=2;" edge="1" parent="1">
          <mxGeometry width="50" height="50" relative="1" as="geometry">
            <mxPoint x="839" y="682" as="sourcePoint" />
            <mxPoint x="839" y="640" as="targetPoint" />
          </mxGeometry>
        </mxCell>
        <mxCell id="F1h0W-G2bSR8l9jg8QGl-29" value="" style="endArrow=none;html=1;rounded=0;entryX=0;entryY=0.5;entryDx=0;entryDy=0;strokeWidth=2;" edge="1" parent="1" target="F1h0W-G2bSR8l9jg8QGl-25">
          <mxGeometry width="50" height="50" relative="1" as="geometry">
            <mxPoint x="840" y="681" as="sourcePoint" />
            <mxPoint x="920" y="620" as="targetPoint" />
          </mxGeometry>
        </mxCell>
        <mxCell id="F1h0W-G2bSR8l9jg8QGl-31" value="" style="endArrow=classic;html=1;rounded=0;strokeWidth=2;entryX=0.5;entryY=0;entryDx=0;entryDy=0;" edge="1" parent="1" target="F1h0W-G2bSR8l9jg8QGl-5">
          <mxGeometry width="50" height="50" relative="1" as="geometry">
            <mxPoint x="1582" y="208" as="sourcePoint" />
            <mxPoint x="1582" y="420" as="targetPoint" />
          </mxGeometry>
        </mxCell>
        <mxCell id="F1h0W-G2bSR8l9jg8QGl-32" value="&lt;font style=&quot;font-size: 26px;&quot;&gt;Yes&lt;/font&gt;" style="text;html=1;align=center;verticalAlign=middle;resizable=0;points=[];autosize=1;strokeColor=none;fillColor=none;" vertex="1" parent="1">
          <mxGeometry x="930" y="170" width="70" height="40" as="geometry" />
        </mxCell>
        <mxCell id="F1h0W-G2bSR8l9jg8QGl-33" value="&lt;font style=&quot;font-size: 26px;&quot;&gt;True&lt;/font&gt;" style="text;html=1;align=center;verticalAlign=middle;resizable=0;points=[];autosize=1;strokeColor=none;fillColor=none;" vertex="1" parent="1">
          <mxGeometry x="1270" y="681" width="80" height="40" as="geometry" />
        </mxCell>
        <mxCell id="F1h0W-G2bSR8l9jg8QGl-35" value="&lt;span style=&quot;font-size: 15px;&quot;&gt;&lt;b&gt;predicted_labels.append(predicted_vowel)&lt;/b&gt;&lt;/span&gt;&lt;div&gt;&lt;span style=&quot;font-size: 15px;&quot;&gt;&lt;b&gt;predicted_class.append(class_num)&lt;/b&gt;&lt;/span&gt;&lt;/div&gt;&lt;div&gt;&lt;span style=&quot;font-size: 15px;&quot;&gt;&lt;b&gt;predicted_vowel = vowel&lt;/b&gt;&lt;/span&gt;&lt;/div&gt;" style="rounded=0;whiteSpace=wrap;html=1;" vertex="1" parent="1">
          <mxGeometry x="400" y="410" width="315" height="80" as="geometry" />
        </mxCell>
        <mxCell id="F1h0W-G2bSR8l9jg8QGl-36" value="" style="endArrow=none;html=1;rounded=0;strokeWidth=2;" edge="1" parent="1">
          <mxGeometry width="50" height="50" relative="1" as="geometry">
            <mxPoint x="570" y="410" as="sourcePoint" />
            <mxPoint x="569" y="205" as="targetPoint" />
          </mxGeometry>
        </mxCell>
        <mxCell id="F1h0W-G2bSR8l9jg8QGl-37" value="&lt;span style=&quot;font-size: 15px;&quot;&gt;&lt;b&gt;predicted_labels = [ ]&lt;/b&gt;&lt;/span&gt;&lt;div&gt;&lt;span style=&quot;font-size: 15px;&quot;&gt;&lt;b&gt;predicted_class = [ ]&lt;/b&gt;&lt;/span&gt;&lt;/div&gt;&lt;div&gt;&lt;span style=&quot;font-size: 15px;&quot;&gt;&lt;b&gt;classification_counts = {vowel: 0 for vowel in trained_parameters}&lt;/b&gt;&lt;/span&gt;&lt;/div&gt;" style="rounded=0;whiteSpace=wrap;html=1;" vertex="1" parent="1">
          <mxGeometry x="681" y="8" width="315" height="80" as="geometry" />
        </mxCell>
        <mxCell id="F1h0W-G2bSR8l9jg8QGl-38" value="" style="endArrow=classic;html=1;rounded=0;exitX=0.5;exitY=1;exitDx=0;exitDy=0;strokeWidth=2;entryX=0.5;entryY=0;entryDx=0;entryDy=0;" edge="1" parent="1" target="F1h0W-G2bSR8l9jg8QGl-3">
          <mxGeometry width="50" height="50" relative="1" as="geometry">
            <mxPoint x="840" y="88" as="sourcePoint" />
            <mxPoint x="840" y="146" as="targetPoint" />
          </mxGeometry>
        </mxCell>
        <mxCell id="F1h0W-G2bSR8l9jg8QGl-39" value="&lt;span style=&quot;font-size: 15px;&quot;&gt;&lt;b&gt;max_prob = float(&#39;inf&#39;)&lt;/b&gt;&lt;/span&gt;&lt;div&gt;&lt;span style=&quot;font-size: 15px;&quot;&gt;&lt;b&gt;predicted_vowel = None&lt;/b&gt;&lt;/span&gt;&lt;/div&gt;" style="rounded=0;whiteSpace=wrap;html=1;" vertex="1" parent="1">
          <mxGeometry x="742" y="331" width="196" height="80" as="geometry" />
        </mxCell>
        <mxCell id="F1h0W-G2bSR8l9jg8QGl-40" value="" style="endArrow=classic;html=1;rounded=0;exitX=0.5;exitY=1;exitDx=0;exitDy=0;strokeWidth=2;" edge="1" parent="1">
          <mxGeometry width="50" height="50" relative="1" as="geometry">
            <mxPoint x="840" y="290" as="sourcePoint" />
            <mxPoint x="840" y="330" as="targetPoint" />
          </mxGeometry>
        </mxCell>
        <mxCell id="F1h0W-G2bSR8l9jg8QGl-42" value="&lt;font style=&quot;font-size: 29px;&quot;&gt;Input test_data&lt;/font&gt;" style="shape=parallelogram;perimeter=parallelogramPerimeter;whiteSpace=wrap;html=1;fixedSize=1;strokeWidth=2;fillColor=#e1d5e7;strokeColor=#9673a6;" vertex="1" parent="1">
          <mxGeometry x="704" y="-79" width="270" height="60" as="geometry" />
        </mxCell>
        <mxCell id="F1h0W-G2bSR8l9jg8QGl-43" value="" style="endArrow=classic;html=1;rounded=0;strokeWidth=2;exitX=0.5;exitY=1;exitDx=0;exitDy=0;" edge="1" parent="1">
          <mxGeometry width="50" height="50" relative="1" as="geometry">
            <mxPoint x="840" y="-20" as="sourcePoint" />
            <mxPoint x="840" y="9" as="targetPoint" />
          </mxGeometry>
        </mxCell>
        <mxCell id="F1h0W-G2bSR8l9jg8QGl-44" value="&lt;font style=&quot;font-size: 21px;&quot;&gt;&lt;b&gt;Output&lt;/b&gt;&lt;/font&gt;&lt;div style=&quot;font-size: 21px;&quot;&gt;&lt;font style=&quot;font-size: 21px;&quot;&gt;&lt;b&gt;&amp;nbsp;predicted_labels&lt;/b&gt;&lt;/font&gt;&lt;/div&gt;&lt;div style=&quot;font-size: 21px;&quot;&gt;&lt;font style=&quot;font-size: 21px;&quot;&gt;&lt;b&gt;predicted_class&lt;/b&gt;&lt;/font&gt;&lt;/div&gt;&lt;div style=&quot;font-size: 21px;&quot;&gt;&lt;font style=&quot;font-size: 21px;&quot;&gt;&lt;b&gt;classification counts&lt;/b&gt;&lt;/font&gt;&lt;/div&gt;" style="shape=parallelogram;perimeter=parallelogramPerimeter;whiteSpace=wrap;html=1;fixedSize=1;strokeWidth=2;fillColor=#e1d5e7;strokeColor=#9673a6;" vertex="1" parent="1">
          <mxGeometry x="1020" y="150" width="315" height="110" as="geometry" />
        </mxCell>
        <mxCell id="F1h0W-G2bSR8l9jg8QGl-45" value="" style="endArrow=none;html=1;rounded=0;strokeWidth=2;" edge="1" parent="1">
          <mxGeometry width="50" height="50" relative="1" as="geometry">
            <mxPoint x="1327" y="207.63" as="sourcePoint" />
            <mxPoint x="1583" y="207.63" as="targetPoint" />
          </mxGeometry>
        </mxCell>
        <mxCell id="F1h0W-G2bSR8l9jg8QGl-46" value="" style="endArrow=classic;html=1;rounded=0;strokeWidth=2;" edge="1" parent="1">
          <mxGeometry width="50" height="50" relative="1" as="geometry">
            <mxPoint x="925" y="204.57" as="sourcePoint" />
            <mxPoint x="1030" y="205" as="targetPoint" />
          </mxGeometry>
        </mxCell>
      </root>
    </mxGraphModel>
  </diagram>
</mxfile>
